<?xml version="1.0" encoding="utf-8"?>
<!-- Generator: Adobe Illustrator 24.1.2, SVG Export Plug-In . SVG Version: 6.00 Build 0)  -->
<svg version="1.1" id="Layer_1" xmlns="http://www.w3.org/2000/svg" xmlns:xlink="http://www.w3.org/1999/xlink" x="0px" y="0px"
	 viewBox="0 0 780 500" style="enable-background:new 0 0 780 500;" xml:space="preserve">
<style type="text/css">
	.st0{display:none;fill:#FFFFFF;stroke:#000000;stroke-width:10;stroke-miterlimit:10;}
	.st1{fill:#FFFFFF;stroke:#000000;stroke-width:19;stroke-miterlimit:10;}
	.st2{fill-rule:evenodd;clip-rule:evenodd;fill:url(#SVGID_1_);}
	.st3{fill-rule:evenodd;clip-rule:evenodd;fill:url(#SVGID_2_);}
	.st4{fill-rule:evenodd;clip-rule:evenodd;fill:url(#SVGID_3_);}
	.st5{fill-rule:evenodd;clip-rule:evenodd;fill:url(#SVGID_4_);}
</style>
<rect y="0" class="st0" width="780" height="500"/>
<rect class="st1" width="780" height="500"/>
<path d="M692.3,204.8c0-2.3,0.5-4.5,1.3-6.6s2.1-3.8,3.5-5.5s3.3-2.8,5.2-3.6c2-0.9,4.2-1.3,6.4-1.3s4.5,0.5,6.5,1.3
	c2.1,0.9,3.8,2.1,5.3,3.6s2.7,3.4,3.6,5.5c0.9,2.1,1.3,4.3,1.3,6.6s-0.5,4.5-1.3,6.6s-2.1,3.8-3.6,5.5s-3.3,2.8-5.3,3.6
	c-2.1,0.9-4.2,1.3-6.5,1.3s-4.4-0.5-6.4-1.3c-2-0.9-3.7-2.1-5.2-3.6s-2.7-3.4-3.5-5.5C692.7,209.3,692.3,207.1,692.3,204.8z
	 M695.7,204.8c0,2,0.3,3.7,1,5.5c0.7,1.6,1.6,3.1,2.8,4.4s2.6,2.2,4.2,2.9c1.6,0.7,3.4,1,5.2,1s3.6-0.3,5.2-1c1.6-0.7,3-1.7,4.2-2.9
	c1.2-1.3,2.1-2.7,2.8-4.4c0.7-1.6,1-3.5,1-5.5s-0.3-3.7-1-5.5c-0.7-1.6-1.6-3.1-2.8-4.4c-1.2-1.3-2.6-2.2-4.2-2.9
	c-1.6-0.7-3.4-1-5.2-1s-3.6,0.3-5.2,1c-1.6,0.7-3,1.7-4.2,2.9c-1.2,1.3-2.1,2.7-2.8,4.4C696.1,200.9,695.7,202.8,695.7,204.8z
	 M703.1,197.4c0-1,0.5-1.5,1.5-1.5h5.2c1.6,0,3,0.5,3.9,1.4s1.5,2.3,1.5,3.9c0,0.7-0.1,1.3-0.3,1.9c-0.2,0.5-0.5,0.9-0.8,1.4
	s-0.7,0.7-1,0.9s-0.7,0.5-1.2,0.5v0.1c0,0,0.1,0.1,0.1,0.2c0,0,0.1,0.1,0.2,0.3c0,0.1,0.1,0.3,0.2,0.5l2.4,4.8
	c0.2,0.5,0.3,0.9,0.2,1.3c-0.1,0.3-0.5,0.5-1,0.5h-0.6c-0.9,0-1.5-0.3-1.9-1.2l-2.7-5.7h-2.9v5.3c0,0.9-0.5,1.5-1.4,1.5H704
	c-0.9,0-1.4-0.5-1.4-1.5L703.1,197.4L703.1,197.4z M709.2,204.2c0.9,0,1.6-0.2,2.1-0.8s0.7-1.3,0.7-2.2s-0.2-1.6-0.7-2.1
	s-1.2-0.7-2.1-0.7h-2.8v5.8H709.2L709.2,204.2z M573.7,215.3c5.2,0,9.8,0.7,13.4,2c3.6,1.4,6.5,2.6,8.6,3.7c1.7,0.9,2.8,2.2,3.1,3.7
	s0,3.3-0.8,5l-1.5,2.8c-0.9,1.9-2.1,2.9-3.6,3.3s-3.1,0-5.1-0.8c-1.7-0.8-3.8-1.6-6.4-2.6s-5.3-1.3-8.7-1.3s-6,0.7-7.9,2
	c-1.9,1.4-2.8,3.3-2.8,5.7c0,2.2,0.9,3.9,2.9,5.2c1.9,1.4,4.3,2.6,7.3,3.6s6,2.1,9.4,3.4c3.4,1.3,6.5,2.7,9.4,4.5
	c2.9,1.9,5.3,4.2,7.3,7.1c1.9,2.9,2.9,6.5,2.9,11c0,3.5-0.7,6.7-2.1,9.6c-1.4,2.9-3.4,5.5-6,7.7c-2.7,2.2-5.8,3.8-9.5,5.1
	s-7.8,1.9-12.3,1.9c-6.4,0-11.7-0.9-16.1-2.8c-4.4-1.9-7.8-3.6-10.1-5.2c-1.7-1-2.8-2.3-2.9-3.8c-0.1-1.5,0.2-3.3,1.4-5l1.9-2.8
	c1.2-1.6,2.4-2.6,3.8-2.8s3,0.2,5,1.3c1.9,1,4.3,2.2,7.2,3.5s6.4,2,10.5,2c3.4,0,6-0.7,8-2.2c2-1.4,2.9-3.4,2.9-5.9
	c0-2.2-0.9-3.8-2.9-5.2c-1.9-1.3-4.3-2.4-7.3-3.6c-2.9-1-6-2.2-9.4-3.5s-6.5-2.8-9.4-4.6c-2.9-1.9-5.3-4.2-7.3-7.1
	c-2-2.9-2.9-6.6-2.9-11.2c0-3.8,0.8-7.2,2.4-10.2c1.6-3,3.7-5.5,6.5-7.4c2.8-2,5.9-3.5,9.6-4.5C565.8,215.7,569.7,215.3,573.7,215.3
	L573.7,215.3L573.7,215.3z M344.1,215.3c5.2,0,9.8,0.7,13.4,2c3.6,1.4,6.5,2.6,8.6,3.7c1.7,0.9,2.8,2.2,3.1,3.7c0.3,1.5,0,3.3-0.8,5
	l-1.5,2.8c-0.9,1.9-2.1,2.9-3.6,3.3c-1.5,0.3-3.1,0-5.1-0.8c-1.7-0.8-3.8-1.6-6.3-2.6s-5.3-1.3-8.7-1.3c-3.4,0-6,0.7-7.9,2
	c-1.9,1.4-2.8,3.3-2.8,5.7c0,2.2,0.9,3.9,2.9,5.2c1.9,1.4,4.3,2.6,7.3,3.6c2.9,1,6,2.1,9.4,3.4c3.4,1.2,6.5,2.7,9.4,4.5
	s5.3,4.2,7.3,7.1c1.9,2.9,2.9,6.5,2.9,11c0,3.5-0.7,6.7-2.1,9.6s-3.4,5.5-6,7.7c-2.7,2.2-5.8,3.8-9.5,5.1s-7.8,1.9-12.3,1.9
	c-6.4,0-11.7-0.9-16.1-2.8s-7.8-3.6-10.1-5.2c-1.7-1-2.8-2.3-2.9-3.8s0.2-3.3,1.4-5l1.9-2.8c1.2-1.6,2.4-2.6,3.8-2.8
	c1.4-0.2,3,0.2,5,1.3c1.9,1,4.3,2.2,7.2,3.5c2.9,1.3,6.4,2,10.5,2c3.4,0,6-0.7,8-2.2c2-1.4,2.9-3.4,2.9-5.9c0-2.2-0.9-3.8-2.9-5.2
	c-1.9-1.3-4.3-2.4-7.3-3.6c-2.9-1-6-2.2-9.4-3.5s-6.5-2.8-9.4-4.6c-2.9-1.9-5.3-4.2-7.3-7.1c-2-2.9-2.9-6.6-2.9-11.2
	c0-3.8,0.8-7.2,2.4-10.2s3.7-5.5,6.5-7.4c2.8-2,5.9-3.5,9.5-4.5C336.1,215.7,340,215.3,344.1,215.3L344.1,215.3L344.1,215.3z
	 M625.8,186.3c4.3,0,6.5,2.2,6.5,6.5v31.8c0,1,0,2-0.1,2.7c0,0.8-0.1,1.5-0.2,2.1c-0.1,0.7-0.1,1.4-0.1,1.9h0.3
	c0.9-1.9,2.2-3.7,3.9-5.7s3.7-3.6,6-5.2c2.3-1.5,5-2.8,7.9-3.7s6.2-1.4,9.5-1.4c8.7,0,15.6,2.3,20.3,7.1s7.2,12.4,7.2,22.9v44.3
	c0,4.3-2.2,6.5-6.5,6.5H674c-4.3,0-6.5-2.2-6.5-6.5v-40.2c0-4.9-0.8-8.7-2.4-11.7c-1.6-3-5-4.4-9.9-4.4c-3.4,0-6.5,0.7-9.3,2
	s-5.2,3.1-7.2,5.5c-2,2.3-3.5,5.1-4.5,8.2c-1,3.3-1.6,6.6-1.6,10.3v30.2c0,4.3-2.2,6.5-6.5,6.5h-6.6c-4.3,0-6.5-2.2-6.5-6.5v-96.6
	c0-4.3,2.2-6.5,6.5-6.5L625.8,186.3L625.8,186.3z M523.2,217.2c4.2,0,6.4,2.2,6.4,6.5v65.9c0,4.3-2.1,6.5-6.4,6.5h-6.9
	c-4.2,0-6.4-2.2-6.4-6.5v-65.9c0-4.3,2.1-6.5,6.4-6.5C516.4,217.2,523.2,217.2,523.2,217.2z M392.1,217.2c3.9,0,6.3,1.9,7,5.7
	l12.7,46.1c0.2,1.2,0.3,2.2,0.6,3.1c0.2,0.9,0.3,1.9,0.6,2.7c0.2,0.9,0.3,1.9,0.5,2.7h0.3c0.1-0.8,0.2-1.7,0.5-2.7
	c0.2-0.8,0.3-1.7,0.6-2.7c0.1-0.9,0.3-2,0.7-3.1l13.2-46.1c0.7-3.7,3.1-5.6,7.1-5.6h5.8c3.8,0,6.2,1.9,7.1,5.6l13.1,46.1
	c0.3,1.2,0.6,2.2,0.7,3.1s0.3,1.9,0.6,2.7c0.2,0.9,0.3,1.9,0.5,2.7h0.3c0.1-0.8,0.2-1.7,0.5-2.7c0.2-0.8,0.3-1.7,0.6-2.7
	c0.1-0.9,0.3-2,0.7-3.1l12.5-46.1c0.9-3.8,3.3-5.7,7.1-5.7h7.1c2.3,0,4.1,0.7,5,2c0.9,1.4,1,3.1,0.5,5.2l-20.2,66.2
	c-1,3.6-3.5,5.5-7.3,5.5h-10.3c-3.9,0-6.4-1.9-7.3-5.6L440.7,251c-0.3-1-0.6-2.1-0.8-3.1c-0.2-1-0.5-2-0.6-2.8
	c-0.2-0.9-0.3-1.9-0.5-2.7h-0.3c-0.2,0.8-0.5,1.7-0.6,2.7c-0.2,0.8-0.5,1.7-0.6,2.8c-0.1,1-0.5,2.1-0.8,3.1l-11.8,39.5
	c-0.9,3.7-3.3,5.6-7.1,5.6h-10.8c-3.7,0-6-1.9-7.1-5.5l-20.4-66.2c-0.6-2.2-0.5-3.9,0.6-5.2c1-1.4,2.6-2,4.9-2L392.1,217.2
	L392.1,217.2z"/>
<g>
	
		<linearGradient id="SVGID_1_" gradientUnits="userSpaceOnUse" x1="-4022.7378" y1="427.7895" x2="-4022.9819" y2="428.3935" gradientTransform="matrix(125.82 0 0 -155.25 506330.0313 66712.7578)">
		<stop  offset="0" style="stop-color:#EF2131"/>
		<stop  offset="1" style="stop-color:#FECF2C"/>
	</linearGradient>
	<path class="st2" d="M112.6,342.2c41,19.6,91.6,9.9,122.3-26.6c36.2-43.2,30.7-107.6-12.5-143.8L193.7,206
		c33.8,28.3,38.1,78.6,9.9,112.4C180.8,345.3,143.6,354.3,112.6,342.2"/>
	
		<linearGradient id="SVGID_2_" gradientUnits="userSpaceOnUse" x1="-4019.2134" y1="405.5718" x2="-4019.7825" y2="404.4798" gradientTransform="matrix(114.75 0 0 -125.78 461429.1563 51238.5)">
		<stop  offset="0" style="stop-color:#FBC52C"/>
		<stop  offset="0.26" style="stop-color:#F87130"/>
		<stop  offset="0.56" style="stop-color:#EF52E2"/>
		<stop  offset="1" style="stop-color:#661EEC"/>
	</linearGradient>
	<path class="st3" d="M112.6,342.2c41,19.6,91.6,9.9,122.3-26.6c3.7-4.4,7.1-9.2,9.9-14.1c4.9-30-5.8-61.8-30.8-82.7
		c-6.4-5.3-13.2-9.6-20.4-12.9c33.8,28.3,38.1,78.6,9.9,112.4C180.8,345.3,143.6,354.3,112.6,342.2"/>
</g>
<linearGradient id="SVGID_3_" gradientUnits="userSpaceOnUse" x1="-4022.8586" y1="428.2876" x2="-4022.6262" y2="427.7068" gradientTransform="matrix(125.82 0 0 -155.25 506280 66692.2266)">
	<stop  offset="0" style="stop-color:#78F6D8"/>
	<stop  offset="0.27" style="stop-color:#77D1F6"/>
	<stop  offset="0.55" style="stop-color:#70A4F3"/>
	<stop  offset="1" style="stop-color:#661EEC"/>
</linearGradient>
<path class="st4" d="M200.7,157.8c-41-19.6-91.6-9.9-122.2,26.5C42.2,227.6,47.8,292,91,328.2l28.7-34.3
	c-33.7-28.2-38.1-78.5-9.8-112.3C132.5,154.7,169.6,145.8,200.7,157.8"/>
<linearGradient id="SVGID_4_" gradientUnits="userSpaceOnUse" x1="-4020.0554" y1="404.7868" x2="-4019.4861" y2="405.8786" gradientTransform="matrix(114.75 0 0 -125.78 461390.25 51188.375)">
	<stop  offset="0" style="stop-color:#536EED"/>
	<stop  offset="0.25" style="stop-color:#54C3EC"/>
	<stop  offset="0.56" style="stop-color:#64D769"/>
	<stop  offset="1" style="stop-color:#FECF2C"/>
</linearGradient>
<path class="st5" d="M200.7,157.8c-41-19.6-91.6-9.9-122.2,26.5c-3.7,4.4-7.1,9.2-9.9,14.1c-4.9,30,5.8,61.8,30.8,82.7
	c6.4,5.3,13.2,9.6,20.4,12.9c-33.7-28.3-38.1-78.6-9.9-112.3C132.5,154.7,169.6,145.8,200.7,157.8"/>
</svg>
